<?xml version="1.0" standalone="no"?><!DOCTYPE svg PUBLIC "-//W3C//DTD SVG 1.1//EN" "http://www.w3.org/Graphics/SVG/1.1/DTD/svg11.dtd"><svg t="1744706400287" class="icon" viewBox="0 0 1024 1024" version="1.1" xmlns="http://www.w3.org/2000/svg" p-id="5089" xmlns:xlink="http://www.w3.org/1999/xlink" width="256" height="256"><path d="M890.254222 591.843556c119.381333-38.769778 142.990222-90.510222 119.210667-182.499556-27.079111 8.760889-59.875556-0.028444-64.625778-14.734222-4.778667-14.592 16.526222-41.045333 43.605333-49.863111-34.787556-88.376889-84.309333-116.309333-203.690666-77.568-45.681778 14.848-92.103111 42.439111-132.408889 74.951111C670.776889 293.745778 682.666667 241.066667 682.666667 193.024c0-125.496889-41.898667-163.982222-136.732445-169.756444 0 28.444444-18.545778 56.888889-33.934222 56.888888s-33.962667-28.444444-33.962667-56.888888C383.203556 29.041778 341.333333 67.527111 341.333333 193.024c0 48.042667 11.861333 100.721778 30.321778 149.077333-40.277333-32.483556-86.727111-60.046222-132.408889-74.894222-119.381333-38.798222-168.903111-10.837333-203.719111 77.568 27.050667 8.817778 48.384 35.214222 43.633778 49.863111-4.750222 14.648889-37.546667 23.495111-64.597333 14.734222-23.808 91.960889-0.142222 143.701333 119.182222 182.471112 45.681778 14.819556 99.470222 19.825778 151.153778 17.208888-43.349333 28.273778-83.911111 63.914667-112.156445 102.769778-73.784889 101.546667-62.492444 157.297778 10.837333 217.713778 16.725333-23.011556 48.440889-35.128889 60.928-26.083556 12.458667 9.016889 10.752 42.979556-5.973333 65.991112 80.099556 51.057778 136.618667 44.515556 210.375111-56.974223 28.245333-38.855111 49.578667-88.490667 63.089778-138.439111 13.511111 49.976889 34.872889 99.584 63.089778 138.439111 73.784889 101.546667 130.275556 108.032 210.403555 56.974223-16.696889-23.04-18.460444-56.945778-5.973333-66.019556 12.430222-9.016889 44.174222 3.043556 60.928 26.083556 73.301333-60.387556 84.565333-116.138667 10.837333-217.685334-28.245333-38.855111-68.835556-74.496-112.156444-102.769778 51.655111 2.616889 105.415111-2.389333 151.125333-17.208888zM512 578.474667c-4.608-8.305778-10.040889-15.303111-16.725333-20.167111-6.656-4.864-15.018667-7.850667-24.348445-9.699556 6.485333-6.940444 11.463111-14.279111 14.023111-22.129778 2.56-7.822222 2.844444-16.696889 1.678223-26.140444 8.590222 4.010667 17.123556 6.485333 25.372444 6.485333 8.248889 0 16.782222-2.474667 25.429333-6.513778-1.166222 9.443556-0.881778 18.318222 1.678223 26.140445 2.56 7.850667 7.537778 15.189333 13.994666 22.129778-9.301333 1.848889-17.664 4.835556-24.32 9.699555-6.712889 4.892444-12.174222 11.889778-16.782222 20.195556z" fill="#F4ABBA" p-id="5090"></path><path d="M477.724444 531.484444a28.444444 28.444444 0 0 1-33.934222 21.617778l-166.627555-37.034666a28.444444 28.444444 0 1 1 12.344889-55.523556l166.599111 37.034667c15.36 3.413333 25.031111 18.574222 21.617777 33.905777z m27.761778 6.200889a28.444444 28.444444 0 0 1 33.934222-21.617777l166.599112 37.034666a28.444444 28.444444 0 1 1-12.316445 55.523556l-166.599111-37.034667a28.387556 28.387556 0 0 1-21.617778-33.905778z" fill="#FFFFFF" p-id="5091"></path><path d="M505.486222 537.685333a28.444444 28.444444 0 0 1-39.253333-8.760889l-91.619556-143.957333a28.416 28.416 0 1 1 47.985778-30.520889l91.648 143.985778a28.472889 28.472889 0 0 1-8.760889 39.253333z m22.670222 35.612445a28.444444 28.444444 0 0 1 39.253334 8.732444l91.676444 143.985778a28.444444 28.444444 0 0 1-48.042666 30.549333l-91.619556-143.985777a28.529778 28.529778 0 0 1 8.732444-39.281778z" fill="#FFFFFF" p-id="5092"></path><path d="M511.658667 509.923556a28.444444 28.444444 0 0 1-21.589334-33.934223l37.034667-166.599111a28.444444 28.444444 0 1 1 55.495111 12.344889l-37.006222 166.599111a28.444444 28.444444 0 0 1-33.934222 21.589334z m-6.172445 27.761777a28.387556 28.387556 0 0 1 21.589334 33.905778l-36.977778 166.599111a28.444444 28.444444 0 0 1-55.580445-12.316444l37.063111-166.599111a28.387556 28.387556 0 0 1 33.905778-21.589334z" fill="#FFFFFF" p-id="5093"></path><path d="M505.486222 537.656889a28.416 28.416 0 0 1 8.732445-39.253333l143.985777-91.619556a28.416 28.416 0 1 1 30.520889 47.985778l-143.985777 91.619555a28.387556 28.387556 0 0 1-39.253334-8.732444z" fill="#FFFFFF" p-id="5094"></path><path d="M505.486222 537.656889a28.444444 28.444444 0 0 1-8.732444 39.281778l-143.985778 91.648a28.444444 28.444444 0 1 1-30.549333-48.014223l143.985777-91.648a28.501333 28.501333 0 0 1 39.281778 8.732445z" fill="#FFFFFF" p-id="5095"></path><path d="M626.119111 727.210667a56.917333 56.917333 0 1 1 61.041778 96.028444 56.917333 56.917333 0 0 1-61.041778-96.028444zM413.866667 393.699556a56.888889 56.888889 0 1 1-61.098667-95.943112 56.888889 56.888889 0 0 1 61.098667 95.943112z m54.613333 310.556444a56.945778 56.945778 0 1 1-24.661333 111.104 56.945778 56.945778 0 0 1 24.661333-111.104z m86.385778-388.693333a56.888889 56.888889 0 1 1 24.689778-111.075556 56.888889 56.888889 0 1 1-24.689778 111.075556z m-171.036445 299.52a56.888889 56.888889 0 1 1-96 61.155555 56.888889 56.888889 0 0 1 96-61.155555z m265.642667-169.045334a56.888889 56.888889 0 1 1 96.056889-61.070222 56.888889 56.888889 0 0 1-96.056889 61.070222z m22.613333 128.682667a56.945778 56.945778 0 0 1 67.896889-43.235556 56.888889 56.888889 0 1 1-67.896889 43.235556z m-360.96-80.241778a56.888889 56.888889 0 1 1-111.075555-24.689778 56.888889 56.888889 0 0 1 111.075555 24.689778z" fill="#EA596E" p-id="5096"></path><path d="M512 649.045333a113.777778 113.777778 0 1 0 0-227.555555 113.777778 113.777778 0 0 0 0 227.555555z" fill="#FFCC4D" p-id="5097"></path></svg>