<?xml version="1.0" standalone="no"?><!DOCTYPE svg PUBLIC "-//W3C//DTD SVG 1.1//EN" "http://www.w3.org/Graphics/SVG/1.1/DTD/svg11.dtd"><svg t="1744701949842" class="icon" viewBox="0 0 1024 1024" version="1.1" xmlns="http://www.w3.org/2000/svg" p-id="2643" xmlns:xlink="http://www.w3.org/1999/xlink" width="256" height="256"><path d="M810.666667 213.333333h-85.333334V149.333333c0-12.8-8.533333-21.333333-21.333333-21.333333s-21.333333 8.533333-21.333333 21.333333V213.333333h-341.333334V149.333333c0-12.8-8.533333-21.333333-21.333333-21.333333s-21.333333 8.533333-21.333333 21.333333V213.333333H213.333333c-46.933333 0-85.333333 38.4-85.333333 85.333334v512c0 46.933333 38.4 85.333333 85.333333 85.333333h597.333334c46.933333 0 85.333333-38.4 85.333333-85.333333V298.666667c0-46.933333-38.4-85.333333-85.333333-85.333334z m42.666666 597.333334c0 25.6-17.066667 42.666667-42.666666 42.666666H213.333333c-25.6 0-42.666667-17.066667-42.666666-42.666666V341.333333h682.666666v469.333334z m-213.333333-298.666667c0-72.533333-55.466667-128-128-128s-128 55.466667-128 128 55.466667 128 128 128 128-55.466667 128-128z m-128 85.333333c-46.933333 0-85.333333-38.4-85.333333-85.333333s38.4-85.333333 85.333333-85.333333 85.333333 38.4 85.333333 85.333333-38.4 85.333333-85.333333 85.333333z m-256 192c0-34.133333 76.8-149.333333 256-149.333333s256 115.2 256 149.333333c0 12.8-8.533333 21.333333-21.333333 21.333334s-21.333333-8.533333-21.333334-21.333334c-4.266667-12.8-55.466667-106.666667-213.333333-106.666666s-209.066667 93.866667-213.333333 106.666666c0 12.8-8.533333 21.333333-21.333334 21.333334s-21.333333-8.533333-21.333333-21.333334z" fill="#ffffff" p-id="2644"></path></svg>